<svg xmlns="http://www.w3.org/2000/svg" xmlns:xlink="http://www.w3.org/1999/xlink" width="355" height="58.07" viewBox="0 0 355 58.07"><defs><clipPath id="a"><path d="M49.631,57.48a13.721,13.721,0,0,1-4.224-1.62,14.975,14.975,0,0,1-5.652-5.971,15.747,15.747,0,0,1-1.53-4.366c-.085-.439-.153-.885-.2-1.335V41.632c.75.023,1.5.074,2.266.171a20.992,20.992,0,0,1,6.851,2.221c.189.11.424.244.74.453,2.873,1.9,4.494,4.815,5.563,6.746l.079.141A14.462,14.462,0,0,1,54.8,54.3a10.912,10.912,0,0,1,.323,1.435,10.226,10.226,0,0,1,.1,1.025c-.01.257-.019.493-.026.7-.039.01-.077.016-.115.023-.32.069-.643.12-.971.164H50.6c-.327-.044-.649-.1-.971-.164M1.62,47.752V23.337A34.635,34.635,0,0,0,3.888,28.8c.459.886.884,1.608,1.159,2.062a32.947,32.947,0,0,0,5.209,6.557,17.072,17.072,0,0,0,8.672,3.9V57.407A15.294,15.294,0,0,1,1.62,47.752m22.835-7.588c-1.158-.088-2.5-.19-3.9-.384-.533-.074-1.078-.161-1.622-.268a14.966,14.966,0,0,1-7.455-3.4,31.19,31.19,0,0,1-4.9-6.185c-.259-.428-.664-1.115-1.1-1.955A31.969,31.969,0,0,1,2.5,19.618a42.381,42.381,0,0,1-.734-7.133A19.623,19.623,0,0,0,8.3,19.211a22.863,22.863,0,0,0,8.944,3.167q.839.143,1.68.238.809.092,1.622.147a79.3,79.3,0,0,0,10.462-.214l.066,0a19.925,19.925,0,0,1,5.326.3c.1.019.2.043.3.063.01,0,.566.123,1.326.337a18.381,18.381,0,0,1,1.838.625c4.645,1.879,7.989,6.585,9.087,8.132l.016.022a34.007,34.007,0,0,1,5.277,12.137,47.366,47.366,0,0,1,.866,6.386c-.007-.015-.018-.031-.025-.047l-.078-.141c-1.155-2.082-2.9-5.225-6.139-7.365-.363-.241-.635-.4-.841-.515a22.253,22.253,0,0,0-7.513-2.442,23.736,23.736,0,0,0-2.487-.186c-.544-.017-1.082-.013-1.622,0-1.233.025-2.465.113-3.728.2-1.668.112-3.373.229-5.224.229-.955,0-1.95-.031-3-.109M17.545,20.62A20.94,20.94,0,0,1,9.258,17.7a17.653,17.653,0,0,1-6.1-6.387A12.207,12.207,0,0,1,1.935,8.079a13.793,13.793,0,0,1-.3-3.243v0c.077-.02.155-.037.232-.051.321-.066.643-.121.972-.163H6.352q.492.063.972.163A13.782,13.782,0,0,1,11.55,6.4,15.012,15.012,0,0,1,17.2,12.374a15.815,15.815,0,0,1,1.527,4.371c.083.438.15.881.2,1.333v2.741c-.462-.057-.921-.123-1.383-.2M50.421,30.988l-.017-.02c-1.172-1.654-4.739-6.682-9.871-8.754a22,22,0,0,0-2.506-.825V4.855a15.293,15.293,0,0,1,17.3,9.658v26.7a35.718,35.718,0,0,0-4.91-10.223M2.755,3H0V48.032a16.74,16.74,0,0,0,1.62,3.353A17.051,17.051,0,0,0,8.73,57.7a16.808,16.808,0,0,0,7.224,1.621h4.6V41.577c1.39.188,2.686.284,3.77.365a56.531,56.531,0,0,0,8.474-.12c1.229-.084,2.422-.165,3.611-.19v.829a17.634,17.634,0,0,0,1.622,7.428c.063.139.127.277.2.413a16.965,16.965,0,0,0,1.53,2.517,16.418,16.418,0,0,0,2.876,3.04,15.709,15.709,0,0,0,2.394,1.62c.1.056.2.112.3.164a15.053,15.053,0,0,0,5.172,1.62,15.223,15.223,0,0,0,1.859.114,14.646,14.646,0,0,0,1.842-.114h2.754V14.227a16.7,16.7,0,0,0-1.623-3.349,17.013,17.013,0,0,0-7.105-6.315A16.827,16.827,0,0,0,41,2.941h-4.6V21.027a21.732,21.732,0,0,0-5.438-.262l-.067,0a76.84,76.84,0,0,1-10.349.2V19.8a17.642,17.642,0,0,0-1.622-7.429c-.065-.136-.131-.275-.2-.411A17.379,17.379,0,0,0,17.2,9.444,16.737,16.737,0,0,0,14.326,6.4a15.865,15.865,0,0,0-2.394-1.621c-.1-.056-.2-.112-.3-.163A15.129,15.129,0,0,0,6.454,3,14.667,14.667,0,0,0,4.6,2.885,14.266,14.266,0,0,0,2.755,3" transform="translate(0 -2.885)" fill="none"/></clipPath><linearGradient id="b" y1="1.225" x2="0.015" y2="1.225" gradientUnits="objectBoundingBox"><stop offset="0" stop-color="#73aa17"/><stop offset="1" stop-color="#288428"/></linearGradient><clipPath id="c"><rect width="355" height="49.464" fill="none"/></clipPath></defs><g transform="translate(0 -2.885)"><g transform="translate(0 2.885)"><g clip-path="url(#a)"><rect width="56.954" height="56.493" transform="translate(0 0)" fill="url(#b)"/></g></g><g transform="translate(0 11.49)"><g clip-path="url(#c)"><path d="M82.158,20.356h3.971v12.5H101.74v-12.5h3.971v29.95H101.74V36.262H86.129V50.306H82.158Zm38.2,29.95V39.319a1.53,1.53,0,0,0-.2-.795L109.611,20.356h4.542c2.723,4.863,7.061,12.585,8.428,15.22,1.291-2.589,5.763-10.377,8.595-15.22h4.245L124.536,38.59a1.338,1.338,0,0,0-.175.768V50.306ZM149.5,20.356c8.417,0,14.113,5.737,14.113,14.671,0,8.86-5.551,15.28-14.247,15.28H138.8V20.356Zm-6.733,26.578h6.285c7.048,0,10.4-5.047,10.4-11.824,0-5.913-3.057-11.383-10.387-11.383h-6.3Zm31-9.82V50.306h-3.937V20.356h11.7c6.154,0,9.433,3.338,9.433,8.012a6.845,6.845,0,0,1-5.105,7.045c2.444.656,4.571,2.481,4.571,7.68v1.284c0,2.063-.1,4.676.4,5.93h-3.862c-.544-1.292-.506-3.626-.506-6.437V43.23c0-4.264-1.2-6.118-6.577-6.118Zm0-3.341h6.513c4.578,0,6.59-1.721,6.59-5.087,0-3.183-2.076-4.988-6.143-4.988h-6.96Zm49.9,1.389c0,8.237-4.62,15.574-14.055,15.574-8.815,0-13.735-6.814-13.735-15.405,0-8.569,5.022-15.405,14.082-15.405,8.433,0,13.708,6.333,13.708,15.236m-23.632.04c0,6.473,3.313,12.148,9.752,12.148,6.953,0,9.721-5.731,9.721-12.13,0-6.453-3.138-11.907-9.712-11.907-6.788,0-9.762,5.5-9.762,11.889" transform="translate(-10.542 -13.677)" fill="#509822"/><path d="M259.7,50.253,248.037,19.948h.9l6.543,16.831c1.894,4.908,3.96,10.331,4.735,12.527h.086c.646-1.98,3.1-7.921,4.908-12.4l6.758-16.96h.947L260.779,50.253Zm35.683-15.669H278.9V49.478h17.951l-.173.775H278.037V19.948h18.21v.775H278.9V33.809h16.487Zm8.176.818V50.253h-.9V19.948h9.987c5.338,0,9.169,2.454,9.169,7.748,0,3.573-1.722,6.457-6.328,7.232,3.271.56,5.854,2.109,5.854,8.437v.56c0,4,.086,5.51.387,6.328h-.947a30.421,30.421,0,0,1-.3-6.328v-.387c0-5.338-1.377-8.136-8.135-8.136Zm0-.818H312c4.821,0,8.91-1.507,8.91-6.845,0-4.391-2.97-7.017-8.265-7.017h-9.083Zm32.326-13.862H325.168v-.775H347.51v.775H336.748v29.53h-.861Zm17.3,29.53h-.861V19.948h.861Zm31.247-8.006c-1.335,4.133-4.348,8.437-11.493,8.437-8.782,0-13.044-6.931-13.044-15.411,0-8.567,4.262-15.756,13.3-15.756a10.844,10.844,0,0,1,11.193,8.868h-.9A10.122,10.122,0,0,0,373.2,20.336c-8.7,0-12.4,6.974-12.4,14.937,0,7.533,3.746,14.593,12.183,14.593,5.854,0,9.083-3.315,10.547-7.619Z" transform="translate(-31.826 -13.625)" fill="#509822"/></g></g></g></svg>